<?xml version="1.0" encoding="UTF-8" standalone="no"?>
<!-- Created with Inkscape (http://www.inkscape.org/) -->

<svg
   width="210mm"
   height="160mm"
   viewBox="0 0 210 160"
   version="1.1"
   id="svg184"
   xml:space="preserve"
   inkscape:version="1.2.1 (9c6d41e410, 2022-07-14)"
   sodipodi:docname="LAOC_black.svg"
   xmlns:inkscape="http://www.inkscape.org/namespaces/inkscape"
   xmlns:sodipodi="http://sodipodi.sourceforge.net/DTD/sodipodi-0.dtd"
   xmlns="http://www.w3.org/2000/svg"
   xmlns:svg="http://www.w3.org/2000/svg"
   xmlns:rdf="http://www.w3.org/1999/02/22-rdf-syntax-ns#"
   xmlns:cc="http://creativecommons.org/ns#"
   xmlns:dc="http://purl.org/dc/elements/1.1/"><title
     id="title552">LAOC2</title><sodipodi:namedview
     id="namedview186"
     pagecolor="#505050"
     bordercolor="#ffffff"
     borderopacity="1"
     inkscape:showpageshadow="0"
     inkscape:pageopacity="0"
     inkscape:pagecheckerboard="1"
     inkscape:deskcolor="#505050"
     inkscape:document-units="mm"
     showgrid="false"
     showguides="true"
     inkscape:zoom="0.7385171"
     inkscape:cx="163.16481"
     inkscape:cy="212.58817"
     inkscape:window-width="1920"
     inkscape:window-height="1009"
     inkscape:window-x="1912"
     inkscape:window-y="-8"
     inkscape:window-maximized="1"
     inkscape:current-layer="text322" /><defs
     id="defs181" /><g
     inkscape:label="Vrstva 1"
     inkscape:groupmode="layer"
     id="layer1"><g
       aria-label="L&amp;OC"
       id="text322"
       style="font-size:83.8663px;font-family:cassannet_plus_regular-webfont;-inkscape-font-specification:'cassannet_plus_regular-webfont, Normal';stroke-width:0.399363"
       transform="matrix(1.7888237,0,0,1.7888237,-4.4261617,-2.1450725)"><g
         id="g521"><path
           d="M 5.6110909,62.424931 V 3.7021387 H 14.128762 V 54.03011 h 23.996901 v 8.394821 z"
           style="font-family:'Cassannet Plus';-inkscape-font-specification:'Cassannet Plus, Normal'"
           id="path374" /></g><g
         id="g524"
         transform="translate(-42.333354,0.88745469)"><path
           d="m 91.524909,33.145435 q 0,-8.35387 3.849332,-15.315428 3.849333,-6.961558 10.769939,-11.0156422 6.92061,-4.0950343 15.47923,-4.0950343 8.55862,0 15.47923,4.0950343 6.92061,4.0540842 10.76994,11.0156422 3.84933,6.961558 3.84933,15.315428 0,6.224452 -2.29322,11.834649 -2.25226,5.569247 -6.1835,9.664281 -3.93123,4.095035 -9.58238,6.511105 -5.61019,2.37512 -12.0394,2.37512 -6.4292,0 -12.08035,-2.37512 -5.6102,-2.41607 -9.54143,-6.511105 -3.931233,-4.095034 -6.224452,-9.664281 -2.252269,-5.610197 -2.252269,-11.834649 z m 8.968121,0 q 0,9.50048 5.97875,15.765882 6.0197,6.224453 15.15163,6.224453 9.13193,0 15.11068,-6.224453 6.0197,-6.265402 6.0197,-15.765882 0,-9.54143 -6.0197,-15.765882 -5.97875,-6.265402 -15.11068,-6.265402 -9.13193,0 -15.15163,6.265402 -5.97875,6.224452 -5.97875,15.765882 z"
           style="font-family:'Cassannet Plus';-inkscape-font-specification:'Cassannet Plus, Normal'"
           id="path378" /></g><g
         id="g518"
         transform="translate(-21.126329,25.726685)"><path
           d="m 41.247451,45.389588 q 0,-6.838707 4.832141,-11.793699 4.873091,-4.954991 11.752748,-4.954991 h 1.351362 L 46.079592,3.7021387 H 79.29032 V 11.523654 H 59.757006 L 78.225611,47.232353 H 68.807032 L 63.360637,36.830966 h -4.504538 q -3.56268,0 -6.060651,2.497971 -2.497971,2.497971 -2.497971,6.142552 0,3.68553 2.620822,6.142551 2.620822,2.41607 6.429204,2.41607 h 25.307312 v 8.394821 H 57.83234 q -6.838707,0 -11.711798,-5.036893 -4.873091,-5.077842 -4.873091,-11.99845 z"
           style="font-family:'Cassannet Plus';-inkscape-font-specification:'Cassannet Plus, Normal'"
           id="path376" /></g><g
         id="g527"
         transform="translate(-81.413183,24.558594)"><path
           d="m 157.08641,33.145435 q 0,-8.35387 3.84933,-15.315428 3.84933,-6.961558 10.76994,-11.0156422 6.92061,-4.0950343 15.47923,-4.0950343 6.67491,0 11.6299,2.4160702 v 9.1319263 q -5.2826,-3.153176 -11.6299,-3.153176 -9.13192,0 -15.15163,6.265402 -5.97875,6.224452 -5.97875,15.765882 0,9.50048 5.97875,15.765882 6.01971,6.224453 15.15163,6.224453 6.2654,0 11.6299,-3.194127 v 9.131926 q -5.03689,2.457021 -11.6299,2.457021 -6.4292,0 -12.08035,-2.37512 -5.6102,-2.41607 -9.54143,-6.511105 -3.93123,-4.095034 -6.22445,-9.664281 -2.25227,-5.610197 -2.25227,-11.834649 z"
           style="font-family:'Cassannet Plus';-inkscape-font-specification:'Cassannet Plus, Normal'"
           id="path380" /></g></g></g><metadata
     id="metadata550"><rdf:RDF><cc:Work
         rdf:about=""><dc:title>LAOC2</dc:title></cc:Work></rdf:RDF></metadata></svg>
