<svg viewBox="0 0 200 200" xmlns="http://www.w3.org/2000/svg">
  <defs></defs>
  <path d="M 4.74 104.057 C 3.436 104.057 2.319 103.592 1.393 102.664 C 0.463 101.736 0 100.621 0 99.316 L 0 54.618 C 0 53.665 0.326 52.849 0.978 52.174 C 1.631 51.496 2.434 51.156 3.386 51.156 C 4.339 51.156 5.154 51.496 5.832 52.174 C 6.508 52.849 6.848 53.665 6.848 54.618 L 6.848 97.209 L 31.454 97.209 C 32.407 97.209 33.222 97.548 33.898 98.223 C 34.576 98.902 34.915 99.717 34.915 100.67 C 34.915 101.623 34.576 102.425 33.898 103.077 C 33.222 103.729 32.407 104.057 31.454 104.057 L 4.74 104.057 Z M 41.685 104.432 C 40.681 104.432 39.866 104.105 39.239 103.453 C 38.612 102.801 38.299 101.998 38.299 101.046 C 38.299 100.644 38.423 100.142 38.675 99.542 L 57.863 54.242 C 58.264 53.339 58.829 52.599 59.556 52.024 C 60.283 51.446 61.174 51.156 62.227 51.156 L 62.978 51.156 C 64.032 51.156 64.922 51.446 65.65 52.024 C 66.378 52.599 66.942 53.339 67.343 54.242 L 86.531 99.542 C 86.782 100.142 86.908 100.644 86.908 101.046 C 86.908 101.998 86.594 102.801 85.967 103.453 C 85.341 104.105 84.525 104.432 83.521 104.432 C 82.82 104.432 82.18 104.245 81.602 103.867 C 81.025 103.491 80.588 102.976 80.287 102.324 L 75.395 90.586 L 49.811 90.586 L 44.919 102.324 C 44.619 102.976 44.181 103.491 43.604 103.867 C 43.026 104.245 42.387 104.432 41.685 104.432 Z M 62.603 59.885 L 52.445 84.343 L 72.761 84.343 L 62.603 59.885 Z M 120.165 104.81 C 114.897 104.81 110.281 103.655 106.318 101.349 C 102.357 99.039 99.295 95.854 97.138 91.791 C 94.982 87.728 93.853 83.061 93.752 77.795 C 93.853 72.527 94.982 67.862 97.138 63.798 C 99.295 59.736 102.357 56.55 106.318 54.242 C 110.281 51.936 114.897 50.781 120.165 50.781 C 125.432 50.781 130.035 51.936 133.972 54.242 C 137.91 56.55 140.969 59.748 143.152 63.836 C 145.335 67.924 146.476 72.578 146.576 77.795 C 146.476 83.012 145.335 87.664 143.152 91.753 C 140.969 95.841 137.91 99.039 133.972 101.349 C 130.035 103.655 125.432 104.81 120.165 104.81 Z M 120.165 98.412 C 124.178 98.412 127.664 97.509 130.624 95.704 C 133.584 93.897 135.841 91.438 137.397 88.33 C 138.95 85.22 139.73 81.707 139.73 77.795 C 139.73 73.881 138.95 70.371 137.397 67.261 C 135.841 64.15 133.584 61.692 130.624 59.885 C 127.664 58.079 124.178 57.177 120.165 57.177 C 116.101 57.177 112.602 58.079 109.668 59.885 C 106.732 61.692 104.487 64.15 102.932 67.261 C 101.379 70.371 100.599 73.881 100.599 77.795 C 100.599 81.707 101.379 85.22 102.932 88.33 C 104.487 91.438 106.732 93.897 109.668 95.704 C 112.602 97.509 116.101 98.412 120.165 98.412 Z M 181.187 104.81 C 176.17 104.81 171.668 103.717 167.681 101.535 C 163.692 99.353 160.557 96.218 158.274 92.13 C 155.992 88.042 154.851 83.263 154.851 77.795 C 154.851 72.327 155.992 67.549 158.274 63.461 C 160.557 59.371 163.692 56.236 167.681 54.053 C 171.668 51.871 176.17 50.781 181.187 50.781 C 184.599 50.781 187.646 51.183 190.33 51.985 C 193.013 52.788 195.685 53.941 198.344 55.446 C 199.448 56.049 200 57.002 200 58.307 C 200 59.058 199.723 59.723 199.171 60.3 C 198.62 60.877 197.892 61.164 196.989 61.164 C 196.487 61.164 196.036 61.064 195.635 60.865 C 193.427 59.71 191.271 58.833 189.163 58.231 C 187.056 57.629 184.625 57.328 181.866 57.328 C 177.549 57.328 173.876 58.218 170.842 60 C 167.806 61.78 165.525 64.212 163.993 67.297 C 162.462 70.383 161.698 73.881 161.698 77.795 C 161.698 81.707 162.462 85.207 163.993 88.292 C 165.525 91.376 167.806 93.809 170.842 95.591 C 173.876 97.371 177.549 98.262 181.866 98.262 C 184.625 98.262 187.056 97.962 189.163 97.359 C 191.271 96.758 193.427 95.879 195.635 94.726 C 196.036 94.524 196.487 94.423 196.989 94.423 C 197.892 94.423 198.62 94.7 199.171 95.252 C 199.723 95.803 200 96.481 200 97.284 C 200 98.589 199.448 99.542 198.344 100.142 C 195.685 101.648 193.013 102.801 190.33 103.605 C 187.646 104.408 184.599 104.81 181.187 104.81 Z" style="fill: rgb(255, 255, 255); white-space: pre;"></path>
</svg>
